<svg xmlns="http://www.w3.org/2000/svg" viewBox="0 0 120 140" width="120" height="140">
  <!-- Body -->
  <path d="M55 65 Q80 55 95 70 Q105 80 98 100 Q90 115 65 112 Q45 110 42 95 Q38 78 55 65Z" fill="#e8604a" stroke="#8a1a0a" stroke-width="3"/>
  <!-- Tail -->
  <path d="M95 90 Q112 88 120 82" fill="none" stroke="#e8604a" stroke-width="14" stroke-linecap="round"/>
  <path d="M95 90 Q112 88 120 82" fill="none" stroke="#f08070" stroke-width="8" stroke-linecap="round"/>
  <!-- Neck -->
  <path d="M52 68 Q44 52 38 38" fill="none" stroke="#8a1a0a" stroke-width="18" stroke-linecap="round"/>
  <path d="M52 68 Q44 52 38 38" fill="none" stroke="#e8604a" stroke-width="13" stroke-linecap="round"/>
  <!-- Upper jaw -->
  <path d="M22 28 Q35 20 52 30 Q48 40 35 40 Q22 42 22 28Z" fill="#e8604a" stroke="#8a1a0a" stroke-width="2.5"/>
  <!-- Lower jaw -->
  <path d="M22 44 Q35 42 50 48 Q46 56 32 56 Q18 54 22 44Z" fill="#e8604a" stroke="#8a1a0a" stroke-width="2.5"/>
  <!-- Teeth upper -->
  <path d="M25 40 L27 46 M31 39 L33 45 M37 38 L39 44 M43 39 L45 45 M48 41 L49 46" stroke="#1a1a1a" stroke-width="2.5" stroke-linecap="round"/>
  <!-- Teeth lower -->
  <path d="M26 44 L28 38 M32 43 L34 37 M38 43 L40 37 M44 44 L46 38" stroke="#1a1a1a" stroke-width="2.5" stroke-linecap="round"/>
  <!-- Eye -->
  <circle cx="36" cy="26" r="3" fill="#1a1a1a"/>
  <circle cx="37" cy="25" r="1" fill="white"/>
  <!-- Tiny arms -->
  <path d="M54 72 Q46 78 44 85 L48 87" fill="none" stroke="#8a1a0a" stroke-width="3" stroke-linecap="round"/>
  <!-- Claws on arm -->
  <path d="M44 85 L41 82 M44 85 L42 88" stroke="#1a1a1a" stroke-width="2" stroke-linecap="round"/>
  <!-- Left leg -->
  <rect x="52" y="110" width="14" height="28" rx="6" fill="#e8604a" stroke="#8a1a0a" stroke-width="2.5"/>
  <!-- Right leg -->
  <rect x="70" y="108" width="14" height="26" rx="6" fill="#e8604a" stroke="#8a1a0a" stroke-width="2.5"/>
  <!-- Claws left foot -->
  <path d="M50 138 L45 142 M55 138 L53 143 M60 138 L60 143" stroke="#1a1a1a" stroke-width="2.5" stroke-linecap="round"/>
  <!-- Claws right foot -->
  <path d="M68 134 L63 138 M73 134 L71 139 M78 134 L78 139" stroke="#1a1a1a" stroke-width="2.5" stroke-linecap="round"/>
  <!-- Body stripes -->
  <path d="M48 80 Q72 72 96 80" fill="none" stroke="#d04030" stroke-width="2" opacity="0.5"/>
  <path d="M45 90 Q70 82 97 90" fill="none" stroke="#d04030" stroke-width="2" opacity="0.5"/>
  <path d="M44 100 Q68 92 96 100" fill="none" stroke="#d04030" stroke-width="2" opacity="0.5"/>
</svg>
